:SAMPLES-PER-SECOND 30
:FRAME-RANGE 1-1700
:FULLY-SPECIFIED
:DEGREES
107
root  -48.1529 38.3922 55.4648 -174.4 6.62346 176.85
RightUpLeg  4.38177 -10.7098 -10.8924
RightLeg  14.1381 -5.0298 -1.27088
RightFoot  -19.034 0.640537 11.4194
RightToes  6.35937e-011 1.2921e-014 -6.02303e-014
Spine  -1.19387 -2.10793 -0.344586
Spine1  6.31582 -1.59929 -2.74347
HEad  -1.39828 -19.7189 -0.582539
LeftShoulder1  1.6081 -2.32191 -22.5255
LeftArm  -4.55661 9.42036 -44.942
LeftForeArm  38.8988 7.28671 -11.9268
LeftHand  -0.0268489 5.61506 -0.720141
RightShoulder  1.90361 2.68887 25.7291
RightArm  -18.7725 11.5175 51.7399
RightForeArm  75.7469 -5.569 6.52727
RightHand  0.113867 -6.28845 -16.6795
LeftUpLeg  -24.6451 -0.461063 2.61704
LeftLeg  8.74977 10.5532 4.03178
LeftFoot  1.2131 0.766823 -7.03348
LeftToes  -1.9349e-011 5.45182e-011 1.33515e-010
108
root  -48.6744 38.3287 54.6203 -174.287 5.69388 176.662
RightUpLeg  4.98157 -10.7725 -12.2662
RightLeg  15.7376 -4.61007 -1.5587
RightFoot  -18.466 0.743846 13.9072
RightToes  6.35937e-011 1.2921e-014 -6.02303e-014
Spine  -0.972014 -2.17823 -1.32696
Spine1  6.06872 -1.71683 -2.59337
HEad  -1.60339 -21.0969 0.47922
LeftShoulder1  1.6213 -2.39639 -22.3756
LeftArm  -5.03596 10.3617 -45.0143
LeftForeArm  37.6627 7.34853 -11.7718
LeftHand  -0.0215217 5.33383 -0.723703
RightShoulder  1.87087 2.51212 26.1448
RightArm  -18.0193 12.458 51.4998
RightForeArm  75.892 -5.62125 6.88726
RightHand  0.150212 -6.50378 -17.2087
LeftUpLeg  -25.1795 -1.82267 1.87064
LeftLeg  11.209 9.9968 3.90016
LeftFoot  2.65633 0.857655 -7.11246
LeftToes  -1.9349e-011 5.45182e-011 1.33515e-010
109
root  -49.2231 38.2968 53.7953 -174.237 4.58519 176.548
RightUpLeg  5.08275 -10.2618 -13.5342
RightLeg  18.43 -4.33248 -1.81899
RightFoot  -17.458 0.7947 16.9896
RightToes  6.35937e-011 1.2921e-014 -6.02303e-014
Spine  -0.924616 -2.18438 -2.02037
Spine1  6.26298 -1.7675 -2.52849
HEad  -2.2478 -22.7116 1.68164
LeftShoulder1  1.66881 -2.57559 -22.3146
LeftArm  -5.32452 10.5085 -45.2767
LeftForeArm  37.4545 7.59424 -11.7015
LeftHand  -0.0212067 5.34399 -0.901157
RightShoulder  1.89764 2.66457 25.759
RightArm  -18.5137 12.6087 51.8671
RightForeArm  75.6163 -5.57145 6.50901
RightHand  0.170734 -6.62247 -17.4678
LeftUpLeg  -25.4805 -2.61652 1.00061
LeftLeg  13.7682 9.74698 3.70387
LeftFoot  1.79128 0.837594 -7.36529
LeftToes  -1.9349e-011 5.45182e-011 1.33515e-010
110
root  -49.7574 38.3116 52.9843 -174.257 4.18468 176.605
RightUpLeg  4.25305 -8.08654 -14.2399
RightLeg  22.3441 -4.90219 -2.42557
RightFoot  -15.7307 0.657734 19.7863
RightToes  6.35937e-011 1.2921e-014 -6.02303e-014
Spine  -1.25761 -1.89232 -2.23742
Spine1  6.97166 -1.34036 -3.35405
HEad  -2.35027 -24.2823 2.61503
LeftShoulder1  1.65016 -2.52668 -22.2272
LeftArm  -4.99307 10.1574 -45.3953
LeftForeArm  37.8282 7.61678 -11.8926
LeftHand  -0.0224748 5.44942 -1.06863
RightShoulder  1.92987 2.83126 25.4091
RightArm  -19.2282 12.5798 52.2347
RightForeArm  75.2489 -5.51183 6.04867
RightHand  0.142487 -6.43978 -17.3687
LeftUpLeg  -25.159 -2.63249 -0.0354305
LeftLeg  15.383 9.12697 3.62917
LeftFoot  1.36687 0.656021 -5.96338
LeftToes  -1.9349e-011 5.45182e-011 1.33515e-010
111
root  -50.284 38.3701 52.1634 -174.369 3.86545 176.992
RightUpLeg  2.54275 -6.04173 -14.3421
RightLeg  27.6977 -5.96792 -3.61439
RightFoot  -12.8684 0.192235 20.8205
RightToes  6.35937e-011 1.2921e-014 -6.02303e-014
Spine  -1.23712 -1.69042 -2.28315
Spine1  6.9305 -1.12965 -3.70904
HEad  -1.44578 -25.2944 2.85024
LeftShoulder1  1.61872 -2.41896 -22.2089
LeftArm  -5.07418 10.4603 -45.3379
LeftForeArm  38.1078 7.60148 -11.8286
LeftHand  -0.021065 5.39073 -1.15916
RightShoulder  1.94208 2.90961 25.201
RightArm  -19.0146 12.829 52.4037
RightForeArm  75.041 -5.53707 6.15107
RightHand  0.127675 -6.35281 -17.1672
LeftUpLeg  -24.4951 -3.44618 -0.647939
LeftLeg  16.7979 9.22307 3.88336
LeftFoot  0.407475 0.398341 -3.89584
LeftToes  -1.9349e-011 5.45182e-011 1.33515e-010
112
root  -50.7834 38.5433 51.3172 -174.55 3.24707 177.488
RightUpLeg  -0.370965 -6.10817 -13.9177
RightLeg  34.9755 -8.1423 -6.32652
RightFoot  -8.3483 -0.475853 15.9329
RightToes  6.35937e-011 1.2921e-014 -6.02303e-014
Spine  -1.23367 -1.71514 -2.36488
Spine1  6.8047 -1.20476 -3.39622
HEad  -0.383801 -26.0527 3.03088
LeftShoulder1  1.59005 -2.34049 -22.0865
LeftArm  -4.92948 10.7858 -45.0911
LeftForeArm  37.7173 7.49745 -11.8105
LeftHand  -0.0199898 5.34216 -1.08437
RightShoulder  1.92571 2.86627 25.1516
RightArm  -18.944 13.1969 52.6798
RightForeArm  75.5763 -5.51095 6.12639
RightHand  0.106344 -6.22448 -16.8632
LeftUpLeg  -22.8917 -4.14167 -1.18422
LeftLeg  16.7381 9.23797 3.91103
LeftFoot  -0.602788 0.253092 -2.65476
LeftToes  -1.9349e-011 5.45182e-011 1.33515e-010
113
root  -51.2038 38.7249 50.507 -174.76 2.55992 178.001
RightUpLeg  -4.01979 -6.72091 -12.7275
RightLeg  42.534 -10.5603 -10.4869
RightFoot  -3.28147 -0.522648 7.09117
RightToes  6.35937e-011 1.2921e-014 -6.02303e-014
Spine  -1.20366 -1.82144 -2.46887
Spine1  6.78945 -1.31711 -3.20152
HEad  0.28444 -26.7051 3.6736
LeftShoulder1  1.61618 -2.48731 -21.808
LeftArm  -4.87475 10.8958 -44.6908
LeftForeArm  37.5195 7.04718 -11.7989
LeftHand  -0.0193549 5.31674 -1.03869
RightShoulder  1.89897 2.76457 25.2351
RightArm  -18.8753 13.089 53.039
RightForeArm  75.1913 -5.52449 6.11183
RightHand  0.0979963 -6.1655 -16.8779
LeftUpLeg  -21.0182 -3.96455 -1.68696
LeftLeg  16.1458 8.50896 3.63698
LeftFoot  -1.79955 0.192131 -2.17265
LeftToes  -1.9349e-011 5.45182e-011 1.33515e-010
